PathFileType	4	(X/Y/Z)	/Users/itak/Documents/Research/Walk-IL/dataset/trc/00076_00006.trc
DataRate	CameraRate	NumFrames	NumMarkers	Units	OrigDataRate	OrigDataStartFrame	OrigNumFrames
100.000000	100.000000	4	53	mm	100.000000	440	704
Frame#	Time	RPSI			LPSI			L3			STRN			T10			C7			CLAV			RBAK			LBAK			LSHO			LUPA			LAEL			LAOL			LWTS			LWPS			LFRA			LIFD			LHPS			LHTS			RSHO			RUPA			RAEL			RAOL			RWTS			RWPS			RFRA			RIFD			RHTS			RHPS			RBHD			LFHD			RFHD			LBHD			LHIP			RHIP			RASI			LASI			LKNE			LTHI			LANK			LTIP			LTOE			LMT1			LMT5			LHEE			RKNE			RTHI			RANK			RTIP			RTOE			RMT1			RMT5			RHEE			
		X1	Y1	Z1	X2	Y2	Z2	X3	Y3	Z3	X4	Y4	Z4	X5	Y5	Z5	X6	Y6	Z6	X7	Y7	Z7	X8	Y8	Z8	X9	Y9	Z9	X10	Y10	Z10	X11	Y11	Z11	X12	Y12	Z12	X13	Y13	Z13	X14	Y14	Z14	X15	Y15	Z15	X16	Y16	Z16	X17	Y17	Z17	X18	Y18	Z18	X19	Y19	Z19	X20	Y20	Z20	X21	Y21	Z21	X22	Y22	Z22	X23	Y23	Z23	X24	Y24	Z24	X25	Y25	Z25	X26	Y26	Z26	X27	Y27	Z27	X28	Y28	Z28	X29	Y29	Z29	X30	Y30	Z30	X31	Y31	Z31	X32	Y32	Z32	X33	Y33	Z33	X34	Y34	Z34	X35	Y35	Z35	X36	Y36	Z36	X37	Y37	Z37	X38	Y38	Z38	X39	Y39	Z39	X40	Y40	Z40	X41	Y41	Z41	X42	Y42	Z42	X43	Y43	Z43	X44	Y44	Z44	X45	Y45	Z45	X46	Y46	Z46	X47	Y47	Z47	X48	Y48	Z48	X49	Y49	Z49	X50	Y50	Z50	X51	Y51	Z51	X52	Y52	Z52	X53	Y53	Z53	

441	4.4	508.6429138183594	995.3770751953125	-320.2852478027344	623.0961303710938	984.5751953125	-453.7808837890625	568.944580078125	1050.2939453125	-389.2475891113281	761.2116088867188	1245.081665039062	-224.0833282470703	560.028564453125	1185.104736328125	-403.7852478027344	610.4260864257812	1451.648071289062	-363.7193603515625	741.6448974609375	1359.802001953125	-245.2439422607422	511.0684509277344	1314.13037109375	-353.4192199707031	655.0097045898438	1414.142333984375	-453.458740234375	778.804931640625	1418.472900390625	-446.6658325195312	800.1181030273438	1298.91455078125	-531.6838989257812	813.1277465820312	1088.377807617188	-567.6139526367188	712.6195678710938	1072.217651367188	-527.3779907226562	850.7205200195312	840.0571899414062	-486.6073303222656	829.9363403320312	835.82470703125	-568.220947265625	830.4686279296875	978.1248168945312	-573.4585571289062	845.7821655273438	652.207763671875	-482.5395202636719	853.3615112304688	753.6508178710938	-555.2545776367188	868.96142578125	756.4876098632812	-485.9122314453125	538.0161743164062	1414.6181640625	-195.9905090332031	481.4847412109375	1350.791259765625	-161.6296844482422	406.2921142578125	1094.92822265625	-156.1288757324219	485.8735656738281	1065.38818359375	-205.5668792724609	581.59228515625	887.3980102539062	-48.36751556396484	503.942138671875	849.4823608398438	-59.74951171875	416.9300231933594	1011.042175292969	-129.0079345703125	644.0738525390625	706.3893432617188	-52.14611053466797	623.7779541015625	790.3436889648438	-26.6376781463623	549.1973266601562	770.2702026367188	-30.04127311706543	713.4642333984375	1641.08740234375	-367.0661315917969	666.4290161132812	1646.1005859375	-156.5753631591797	781.2892456054688	1669.484375	-204.4159851074219	591.8488159179688	1609.205688476562	-307.3821105957031	764.2066040039062	928.2977294921875	-443.7341003417969	498.2517700195312	924.6522216796875	-219.0048522949219	604.0574340820312	938.008056640625	-146.2717742919922	803.9695434570312	940.83056640625	-327.3833923339844	876.0245971679688	511.9325866699219	-241.2723693847656	858.3533325195312	631.4117431640625	-328.7362365722656	952.2540893554688	38.02914428710938	-272.1707763671875	924.1611938476562	268.3588256835938	-262.7281799316406	1004.529052734375	69.6898193359375	-79.39240264892578	941.3240356445312	56.73768997192383	-105.7937927246094	1017.626892089844	42.01760101318359	-186.3900909423828	863.9921264648438	29.68198394775391	-296.4640197753906	578.6890258789062	477.0989990234375	-276.6036071777344	561.5281372070312	737.276611328125	-191.064697265625	382.90771484375	81.88764953613281	-502.7669067382812	534.6600341796875	361.8432006835938	-325.7235412597656	587.3008422851562	32.37004089355469	-496.0626525878906	544.4500732421875	50.56748199462891	-539.138916015625	490.265869140625	41.95260620117188	-457.2474365234375	363.6648864746094	117.4446487426758	-562.8751220703125	
442	4.41	516.383056640625	997.13916015625	-313.98486328125	631.6307983398438	986.4920654296875	-446.7543029785156	577.5618896484375	1051.628540039062	-382.3647155761719	768.7535400390625	1246.926391601562	-217.0145568847656	568.4697265625	1186.284545898438	-398.2350158691406	619.0682983398438	1452.928100585938	-358.5780029296875	749.2069702148438	1361.599487304688	-238.6142120361328	519.6119384765625	1315.435546875	-348.8852233886719	664.5877075195312	1415.312255859375	-447.7168884277344	788.35693359375	1419.985595703125	-439.7333984375	810.9172973632812	1300.220092773438	-524.2623291015625	824.476318359375	1089.5205078125	-559.06494140625	723.546630859375	1073.443115234375	-519.7884521484375	860.9822387695312	840.883544921875	-478.3759155273438	841.0828247070312	837.0263061523438	-560.1856079101562	841.76904296875	979.2947387695312	-564.9093017578125	855.4371948242188	653.0203247070312	-475.3402404785156	864.10302734375	754.6459350585938	-547.3316650390625	878.9713134765625	757.255615234375	-477.8955688476562	545.1467895507812	1416.369018554688	-191.4374237060547	488.153076171875	1352.483520507812	-157.6228332519531	413.4546203613281	1096.572875976562	-153.9620971679688	494.3428955078125	1067.224975585938	-202.0957641601562	585.9605102539062	887.16162109375	-44.8890266418457	508.0618286132812	850.0201416015625	-57.54662322998047	423.4597473144531	1012.635498046875	-127.1157073974609	646.7122192382812	705.56640625	-48.74377822875977	626.9422607421875	789.6220092773438	-23.11886024475098	552.0896606445312	770.257568359375	-27.62801361083984	722.2540893554688	1643.005615234375	-360.413330078125	672.0285034179688	1647.26416015625	-150.5673828125	787.4896240234375	1670.82568359375	-196.6053619384766	599.924072265625	1610.742065429688	-302.5272216796875	772.5469360351562	929.9822387695312	-435.8953552246094	505.0384216308594	925.9794311523438	-212.8728637695312	610.8267822265625	939.4074096679688	-140.1040191650391	811.8428344726562	942.398681640625	-319.4117736816406	881.8226928710938	512.2612915039062	-234.7324523925781	865.0082397460938	632.8009643554688	-320.9711303710938	953.3726196289062	37.35644912719727	-271.9390563964844	928.1152954101562	267.8988647460938	-258.8038940429688	1007.341430664062	64.65138244628906	-78.75849151611328	943.8247680664062	53.47926330566406	-104.9713897705078	1019.259887695312	38.91881561279297	-186.5501403808594	864.8338012695312	30.83695602416992	-295.9133605957031	587.5733032226562	477.1309204101562	-266.0628051757812	568.8917846679688	738.2877197265625	-184.0729522705078	386.1576232910156	87.75418090820312	-499.9296875	541.33984375	363.3357543945312	-316.4542236328125	587.87353515625	32.34356307983398	-495.2694702148438	546.601318359375	53.47990036010742	-536.7991333007812	491.4136047363281	41.52575302124023	-456.1268920898438	369.1396179199219	126.6483459472656	-558.5018920898438	
443	4.42	523.984375	999.0302734375	-308.0436706542969	640.18310546875	988.4631958007812	-439.8617553710938	586.0791625976562	1053.0986328125	-375.6455993652344	776.1149291992188	1248.823486328125	-209.7765350341797	576.8538818359375	1187.570556640625	-392.6588439941406	627.7058715820312	1454.279418945312	-353.3409729003906	756.6409912109375	1363.45751953125	-231.8350982666016	528.1256103515625	1316.865112304688	-344.3185119628906	674.1939697265625	1416.563842773438	-441.7819519042969	797.9281616210938	1421.572387695312	-432.5518188476562	821.811767578125	1301.658325195312	-516.6119995117188	835.8936157226562	1090.80419921875	-550.3445434570312	734.5289306640625	1074.8046875	-512.0869750976562	871.3106079101562	841.8833618164062	-469.84912109375	852.3595581054688	838.363037109375	-551.8710327148438	853.146240234375	980.5936279296875	-556.1337890625	865.1627807617188	654.0003051757812	-467.8302001953125	874.9532470703125	755.7543334960938	-539.0778198242188	889.0536499023438	758.1934204101562	-469.5541076660156	552.14599609375	1418.263793945312	-186.8758544921875	494.7104187011719	1354.328125	-153.5972442626953	420.3983764648438	1098.414794921875	-151.8032073974609	502.7230224609375	1069.255004882812	-198.5537719726562	590.1004638671875	887.016845703125	-41.45769500732422	511.9281921386719	850.7359619140625	-55.37752532958984	429.7960205078125	1014.41748046875	-125.2363433837891	648.9005126953125	704.7788696289062	-45.54377365112305	629.7214965820312	788.919677734375	-19.76259613037109	554.6549682617188	770.3758544921875	-25.30265617370605	730.958251953125	1644.951538085938	-353.6952209472656	677.5079345703125	1648.496704101562	-144.5519409179688	793.5422973632812	1672.23974609375	-188.7527770996094	607.9007568359375	1612.305541992188	-297.6436157226562	780.8998413085938	931.696533203125	-427.9376831054688	511.5792236328125	927.470458984375	-207.0880889892578	617.1954956054688	940.9824829101562	-134.1175537109375	819.4493408203125	943.8883666992188	-311.3583068847656	887.6704711914062	512.4120483398438	-228.769287109375	871.7340698242188	634.0725708007812	-313.7431945800781	954.4381713867188	36.69549942016602	-271.8219909667969	931.9901123046875	267.4242858886719	-255.4234313964844	1010.168090820312	60.04412841796875	-78.45915222167969	946.3270263671875	50.70161056518555	-104.3846817016602	1020.910217285156	36.08128356933594	-186.9045257568359	865.6368408203125	31.85539245605469	-295.3871154785156	596.5458374023438	477.1458435058594	-254.3416290283203	576.0432739257812	739.4556884765625	-176.8649291992188	389.9056701660156	94.0101318359375	-496.4870910644531	548.2808227539062	364.9327087402344	-306.1304931640625	588.8570556640625	32.34519958496094	-493.5879821777344	549.3618774414062	56.99699401855469	-533.6122436523438	492.7225646972656	41.17867279052734	-454.7739562988281	375.3415832519531	136.3421783447266	-553.2366943359375	
444	4.43	531.436279296875	1000.927551269531	-302.56298828125	648.7642822265625	990.411865234375	-433.1840209960938	594.5107421875	1054.641723632812	-369.2130432128906	783.2351684570312	1250.689697265625	-202.3630828857422	585.2156372070312	1188.920776367188	-387.12158203125	636.3189086914062	1455.654907226562	-348.0068359375	763.8991088867188	1365.294189453125	-224.8919372558594	536.5811767578125	1318.369262695312	-339.7543334960938	683.83740234375	1417.847778320312	-435.6649780273438	807.51318359375	1423.1669921875	-425.0948181152344	832.79736328125	1303.165405273438	-508.7049560546875	847.3654174804688	1092.169311523438	-541.4854125976562	745.5595092773438	1076.236450195312	-504.3168640136719	881.6985473632812	843.009033203125	-461.0280456542969	863.7503662109375	839.7689208984375	-543.2770385742188	864.5950317382812	981.9642333984375	-547.1607666015625	874.9972534179688	655.1102294921875	-459.9547729492188	885.9244384765625	756.9425659179688	-530.4864501953125	899.2186279296875	759.2612915039062	-460.8643188476562	558.96484375	1420.224853515625	-182.3187103271484	501.1128845214844	1356.243286132812	-149.5838775634766	427.0786743164062	1100.369506835938	-149.623779296875	510.8229064941406	1071.385620117188	-194.9872741699219	594.0133056640625	886.9436645507812	-38.07315444946289	515.5548095703125	851.5911865234375	-53.21123123168945	435.910888671875	1016.302612304688	-123.3419799804688	650.6940307617188	704.0323486328125	-42.54705810546875	632.150146484375	788.2268676757812	-16.57017707824707	556.9547119140625	770.60302734375	-23.02932929992676	739.5533447265625	1646.8515625	-346.9158630371094	682.849853515625	1649.759887695312	-138.5378570556641	799.4398803710938	1673.684204101562	-180.8774566650391	615.759765625	1613.836181640625	-292.7305908203125	789.322998046875	933.4286499023438	-419.85888671875	517.8970947265625	929.0112915039062	-201.7512969970703	623.1190185546875	942.6499633789062	-128.3398284912109	826.7761840820312	945.2345581054688	-303.2493286132812	893.4824829101562	512.3767700195312	-223.3081512451172	878.4362182617188	635.1378784179688	-307.0791625976562	955.3911743164062	36.06637954711914	-271.7359924316406	935.7118530273438	266.9293212890625	-252.4751586914062	1012.791564941406	55.84417343139648	-78.30413818359375	948.6261596679688	48.36588668823242	-103.9240875244141	1022.466247558594	33.55989837646484	-187.2845001220703	866.3671264648438	32.72592163085938	-294.8854064941406	605.5338745117188	477.1411437988281	-241.5619354248047	582.9332885742188	740.7194213867188	-169.4813842773438	394.1826782226562	100.6477355957031	-492.3712158203125	555.5149536132812	366.5854187011719	-294.8233947753906	590.356201171875	32.41985702514648	-490.6396179199219	552.8057250976562	61.10524749755859	-529.3414916992188	494.2555236816406	41.13530349731445	-452.9788818359375	382.2417297363281	146.3672332763672	-547.0763549804688	
